<svg width="128" height="128" viewBox="0 0 128 128" xmlns="http://www.w3.org/2000/svg">
  <defs>
    <linearGradient id="g" x1="0" y1="0" x2="1" y2="1">
      <stop offset="0" stop-color="#1e3a8a"></stop>
      <stop offset="1" stop-color="#2563eb"></stop>
    </linearGradient>
  </defs>
  <rect x="12" y="20" width="104" height="96" rx="14" fill="url(#g)"></rect>
  <rect x="12" y="32" width="104" height="8" fill="rgba(255,255,255,0.35)"></rect>
  <rect x="28" y="16" width="12" height="16" rx="3" fill="#fff"></rect>
  <rect x="88" y="16" width="12" height="16" rx="3" fill="#fff"></rect>
  <path d="M44 88c0 10 10 16 22 16 8 0 15-3 18-7l-8-6c-2 2-6 3-10 3-6 0-10-3-10-6 0-9 28-4 28-22 0-10-9-16-22-16-9 0-17 3-21 8l8 6c3-3 8-5 13-5 6 0 10 2 10 6 0 9-28 4-28 23z" fill="#fff"></path>
</svg>
